<svg width="102" height="25" viewBox="0 0 102 25" fill="none" xmlns="http://www.w3.org/2000/svg">
<path d="M0 0.501428L10.3629 17.4163H10.0954C8.25686 17.4163 6.75257 18.8203 6.68571 20.592C6.61886 22.4306 7.92257 24.0686 9.76114 24.3694C9.96172 24.4029 10.1957 24.4363 10.3963 24.4363C11.8003 24.4363 13.2377 23.7009 13.7057 22.2969C15.2769 17.5834 19.656 5.28171 21.294 0.501428H20.7257C19.4889 4.01143 17.0151 11.1986 15.0763 16.7143L5.24829 0.501428H0ZM7.254 20.6254C7.32086 19.1546 8.59114 17.9511 10.0954 17.9511H14.6417C14.0734 19.6226 13.572 21.06 13.2043 22.1297C12.8366 23.166 11.6331 23.868 10.3294 23.868C8.59114 23.868 7.18714 22.3637 7.254 20.6254Z" fill="#F46150"/>
<path d="M20.6356 12.168C20.6356 20.6923 27.7225 24.3026 34.6088 24.336C41.5285 24.3026 48.5819 20.6923 48.5819 12.168C48.5819 3.81086 41.5285 0 34.6088 0C27.689 0 20.6356 3.81086 20.6356 12.168ZM34.6088 0.534856C39.623 0.534856 43.6679 3.47657 43.6679 12.168C43.6679 20.8929 39.623 23.8346 34.6088 23.8346C29.5945 23.8346 25.5496 20.8929 25.5496 12.168C25.5496 3.47657 29.5945 0.534856 34.6088 0.534856Z" fill="#F46150"/>
<path d="M50.9303 12.168C50.9303 19.1211 56.1451 24.336 64.0343 24.336C71.656 24.336 74.8317 20.2577 75.9683 16.5471V23.8011H76.5031V11.9674H71.7563C71.7563 11.9674 72.4583 23.7009 64.0343 23.7009C59.02 23.7009 56.0114 19.656 56.0114 12.168C56.0114 5.08114 58.3514 0.568284 64.0343 0.568284C67.444 0.568284 72.6254 1.90543 73.3274 5.95028L73.8623 5.88343C73.4277 3.24257 70.3188 0 64.0343 0C56.1451 0 50.9303 5.148 50.9303 12.168Z" fill="#F46150"/>
<path d="M79.1644 23.8011H79.7661L83.0421 14.274H92.5692L96.2798 23.8011H101.261L92.2349 0.501428H87.1872L79.1644 23.8011ZM87.5215 1.23686L92.3686 13.7057H83.2426L87.5215 1.23686Z" fill="#F46150"/>
</svg>
