<svg width="64" height="64" viewBox="0 0 64 64" fill="none" xmlns="http://www.w3.org/2000/svg">
<path d="M41.6 31.7999C41.6 36.7999 37.5 40.8999 32.5 40.8999C27.5 40.8999 23.4 36.7999 23.4 31.7999C23.4 19.9999 32.5 11.0999 32.5 7.3999C32.5 11.0999 41.6 19.3999 41.6 31.7999Z" stroke="#F46150" stroke-width="2" stroke-miterlimit="10" stroke-linecap="round" stroke-linejoin="round"/>
<path d="M43.4 22C48.3 20.7 52.5 20.9 54 19.3C51.4 21.9 54 32.1 45.3 40.8C42.6 43.5 38.7 44.1 35.4 42.8" stroke="#F46150" stroke-width="2" stroke-miterlimit="10" stroke-linecap="round" stroke-linejoin="round"/>
<path d="M21.5 22.2001C16.2 20.7001 11.6 20.9 10 19.3C12.6 21.9 10 32.1 18.7 40.8C21.4 43.5 25.4 44.1001 28.7 42.7001" stroke="#F46150" stroke-width="2" stroke-miterlimit="10" stroke-linecap="round" stroke-linejoin="round"/>
<path d="M11.2 34.8C6.6 37.4 3.5 40.7001 1.3 40.7001C5 40.7001 10.3 49.8 22.7 49.8C25.8 49.8 28.6 48.2 30.2 45.8" stroke="#F46150" stroke-width="2" stroke-miterlimit="10" stroke-linecap="round" stroke-linejoin="round"/>
<path d="M52.6 35.1001C57 37.7001 60 40.8001 62.1 40.8001C58.4 40.8001 53.1 49.9001 40.7 49.9001C37.6 49.9001 34.8 48.3001 33.2 45.9001C32.2 44.5001 31.7 42.7001 31.7 40.8001" stroke="#F46150" stroke-width="2" stroke-miterlimit="10" stroke-linecap="round" stroke-linejoin="round"/>
</svg>
