<svg width="64" height="64" viewBox="0 0 64 64" fill="none" xmlns="http://www.w3.org/2000/svg">
<g clip-path="url(#clip0_51_622)">
<path d="M13.55 53.75C9.475 53.75 5.85 52.075 3.05 48.9125C0.949999 46.5375 0.0749993 44.1875 0.0374993 44.0875C-0.0625007 43.8375 0.0249993 43.55 0.237499 43.375C0.449999 43.2125 0.749999 43.2 0.974999 43.35C5.325 46.3125 10.3375 47.2125 15.85 46.025C19.9875 45.1375 22.85 43.35 22.875 43.3375L23.5375 44.4C23.4125 44.475 20.4625 46.3125 16.1 47.25C12.5 48.025 7.3125 48.275 2.125 45.5125C2.575 46.275 3.1875 47.2 4 48.1125C6.5875 51.025 9.7875 52.4875 13.525 52.4875C18.275 52.4875 21.6375 51.4375 23.6375 50.5625L24.1375 51.7C22.0625 52.65 18.525 53.75 13.55 53.75Z" fill="#F46150"/>
<path d="M17 47.025C11.75 47.025 7.3625 45.1125 4.4125 41.5125C1.5125 37.95 -0.0125008 32.7125 -0.0125008 26.375C-0.0125008 26.2 0.0624992 26.05 0.187499 25.925C0.312499 25.8 0.474999 25.7375 0.649999 25.75C0.912499 25.7625 7.05 25.9625 11.3 28L10.7625 29.125C7.5375 27.575 2.9125 27.1375 1.2375 27.0375C1.4375 38.95 7.25 45.775 17 45.775V47.025Z" fill="#F46150"/>
<path d="M19.3375 24.875H18.0875C18.0875 17 20.4875 9.01252 20.5125 8.92502C20.575 8.72502 20.7375 8.56252 20.95 8.51252C21.1625 8.46252 21.375 8.51252 21.5375 8.66252C21.7875 8.90002 27.75 14.4125 29.9625 21.8375L28.7625 22.2C27.1 16.6125 23.0875 12.025 21.425 10.3125C20.8 12.65 19.3375 18.75 19.3375 24.875Z" fill="#F46150"/>
<path d="M32 45.775C29.725 45.775 26.35 45.5625 23.25 44.5375C19.725 43.375 17.2375 41.4375 15.875 38.775C13.5625 34.2625 14.35 30.5875 15.4125 28.3125C16.5625 25.85 18.25 24.4625 18.325 24.4C18.4625 24.2875 18.625 24.2375 18.8 24.2625C18.8875 24.275 20.9875 24.5625 23.475 25.8125C26.775 27.475 29.175 30.075 30.4 33.3125C32.6 39.1375 32.625 44.8875 32.625 45.1375C32.625 45.5 32.35 45.775 32 45.775ZM18.9125 25.5625C18.4625 25.9875 17.325 27.15 16.525 28.9C15.1625 31.8375 15.325 34.975 16.9875 38.225C19.6625 43.4625 26.875 44.45 31.3625 44.525C31.2875 42.8875 30.9375 38.2875 29.2375 33.775C28.1125 30.8 26 28.5125 22.9625 26.975C21.15 26.05 19.5375 25.6875 18.9125 25.5625Z" fill="#F46150"/>
<path d="M38 28.85L36.7625 28.65C37.35 25.0875 33.3 21.125 32 19.95C30.7 21.125 26.65 25.0875 27.2375 28.65L26 28.85C25.2125 24.025 31.0875 19.0625 31.575 18.65C31.625 18.6125 31.675 18.575 31.725 18.55C31.9375 18.45 32.2 18.475 32.3875 18.625C32.6625 18.85 38.8 23.925 38 28.85Z" fill="#F46150"/>
<path d="M15.65 42.775C12.175 42.775 9 41.375 6.325 38.65C2.5625 34.8 0.7625 29.4125 0.0249996 26.5375L1.2375 26.225C2.45 30.975 4.575 35.075 7.225 37.775C10.5125 41.1375 14.45 42.25 18.925 41.1L19.2375 42.3125C18.0125 42.6125 16.8125 42.775 15.65 42.775Z" fill="#F46150"/>
<path d="M50.45 53.7501C41.7 53.7501 37.375 50.3751 37.2 50.2376L37.975 49.2626C38.0125 49.3001 42.1625 52.5001 50.4375 52.5001C54.175 52.5001 57.3875 51.0251 59.9625 48.1251C60.775 47.2126 61.3875 46.2876 61.8375 45.5251C56.65 48.2876 51.4625 48.0376 47.8625 47.2626C43.5125 46.3251 40.55 44.4876 40.425 44.4126L41.0875 43.3501C41.1125 43.3626 44.0125 45.1626 48.1625 46.0501C53.675 47.2251 58.6625 46.3251 63 43.3626C63.225 43.2126 63.525 43.2251 63.7375 43.3876C63.95 43.5501 64.0375 43.8376 63.9375 44.1001C63.9 44.2001 63.025 46.5501 60.925 48.9251C58.15 52.0876 54.5125 53.7501 50.45 53.7501Z" fill="#F46150"/>
<path d="M47 47.025V45.775C56.75 45.775 62.5625 38.9625 62.775 27.0375C61.1 27.15 56.5 27.575 53.2625 29.125L52.7125 28C56.9625 25.9625 63.1 25.7625 63.35 25.75C63.525 25.75 63.675 25.8125 63.8 25.925C63.925 26.0375 63.9875 26.2 63.9875 26.375C63.9875 32.7125 62.4875 37.95 59.5875 41.5C56.6375 45.1125 52.25 47.025 47 47.025Z" fill="#F46150"/>
<path d="M45.9125 24.875H44.6625C44.6625 18.75 43.2 12.65 42.575 10.3C41.1625 11.7625 38.0375 15.3 36.125 19.75L34.975 19.2625C37.6125 13.15 42.2625 8.83747 42.4625 8.66247C42.625 8.51247 42.8375 8.46247 43.05 8.52497C43.2625 8.58747 43.425 8.72497 43.4875 8.93747C43.5 9.01247 45.9125 17 45.9125 24.875Z" fill="#F46150"/>
<path d="M49.175 35.525L48.425 34.525C51.8125 31.9875 53.125 27.8625 52.3125 22.2375C51.875 19.2125 50.9125 16.5625 50.375 15.25L45.375 20.7125L44.45 19.8625L50.1 13.7C50.2375 13.55 50.45 13.475 50.65 13.5C50.85 13.525 51.0375 13.6625 51.125 13.85C51.2 14 52.9 17.6 53.5375 22.05C54.425 28.0875 52.9125 32.7375 49.175 35.525Z" fill="#F46150"/>
<path d="M32 45.775C31.65 45.775 31.375 45.5 31.375 45.15C31.375 44.9125 31.4 39.15 33.6 33.325C34.825 30.0875 37.2125 27.4875 40.525 25.825C43.0125 24.575 45.1125 24.2875 45.2 24.275C45.375 24.25 45.5375 24.3 45.675 24.4125C45.75 24.475 47.4375 25.8625 48.5875 28.325C49.65 30.6125 50.4375 34.275 48.125 38.7875C46.7625 41.45 44.275 43.3875 40.75 44.55C37.65 45.5625 34.275 45.775 32 45.775ZM45.0875 25.5625C44.4625 25.675 42.85 26.05 41.05 26.9625C38.0125 28.5125 35.9 30.8 34.775 33.7625C33.075 38.275 32.725 42.875 32.65 44.5125C37.1375 44.425 44.35 43.4375 47.025 38.2125C48.6875 34.9625 48.8375 31.8375 47.4875 28.8875C46.675 27.15 45.55 25.9875 45.0875 25.5625Z" fill="#F46150"/>
<path d="M48.35 42.775C47.1875 42.775 45.9875 42.625 44.775 42.3L45.0875 41.0875C49.5625 42.2375 53.5 41.125 56.7875 37.7625C59.425 35.0625 61.55 30.9625 62.775 26.2125L63.9875 26.525C63.25 29.4 61.45 34.7875 57.6875 38.6375C55 41.375 51.825 42.775 48.35 42.775Z" fill="#F46150"/>
<path d="M14.8375 35.5375C10.9375 32.9 9.375 28.2751 10.3125 22.1876C11 17.6876 12.7875 14.0126 12.8625 13.8501C12.95 13.6626 13.125 13.5376 13.3375 13.5126C13.5375 13.4876 13.75 13.5625 13.8875 13.7125L19.5375 19.8751L18.6125 20.7251L13.6125 15.2501C13.05 16.5751 12.0125 19.3251 11.55 22.4001C10.6875 28.0501 12.0375 32.125 15.55 34.5126L14.8375 35.5375Z" fill="#F46150"/>
<path d="M27.225 16H25.975C25.975 10.0875 31.3 3.975 31.525 3.7125C31.6375 3.575 31.8125 3.5 32 3.5C32.175 3.5 32.35 3.575 32.475 3.7125C32.7 3.975 38.025 10.0875 38.025 16H36.775C36.775 11.5375 33.2875 6.725 32 5.1125C30.7125 6.725 27.225 11.5375 27.225 16Z" fill="#F46150"/>
<path d="M32 60.5C31.8125 60.5 31.65 60.425 31.525 60.2875C31.2625 59.975 24.9875 52.6375 24.9875 44.5H26.2375C26.2375 50.9125 30.55 57 32 58.875C33.45 57 37.7625 50.9 37.7625 44.5H39.0125C39.0125 52.6375 32.7375 59.975 32.475 60.2875C32.35 60.425 32.175 60.5 32 60.5Z" fill="#F46150"/>
</g>
<defs>
<clipPath id="clip0_51_622">
<rect width="64" height="64" fill="white"/>
</clipPath>
</defs>
</svg>
