<svg width="19" height="20" viewBox="0 0 19 20" fill="none" xmlns="http://www.w3.org/2000/svg">
<path d="M2.35293 20C1.34453 18.365 0.660262 16.6494 0.300119 14.8532C-0.0600236 13.034 -0.0960382 11.2378 0.192076 9.46459C0.48019 7.69142 1.08043 5.99885 1.99279 4.38687C2.90515 2.75187 4.11763 1.28958 5.63023 0L7.575 1.17444C7.93514 1.40472 8.09121 1.69257 8.04319 2.038C8.01918 2.36039 7.91114 2.6137 7.71906 2.79793C7.09481 3.53483 6.5546 4.43293 6.09842 5.49223C5.66624 6.55152 5.39014 7.69142 5.27009 8.91192C5.15004 10.1094 5.21006 11.3529 5.45016 12.6425C5.69025 13.9321 6.18245 15.1756 6.92674 16.3731C7.23887 16.8566 7.3229 17.2942 7.17884 17.6857C7.0588 18.0541 6.77068 18.3305 6.3145 18.5147L2.35293 20ZM13.3013 20C12.2929 18.365 11.6086 16.6494 11.2485 14.8532C10.8883 13.034 10.8523 11.2378 11.1404 9.46459C11.4285 7.69142 12.0288 5.99885 12.9411 4.38687C13.8535 2.75187 15.066 1.28958 16.5786 0L18.5233 1.17444C18.8835 1.40472 19.0395 1.69257 18.9915 2.038C18.9675 2.36039 18.8595 2.6137 18.6674 2.79793C18.0431 3.53483 17.5029 4.43293 17.0468 5.49223C16.6146 6.55152 16.3385 7.69142 16.2184 8.91192C16.0984 10.1094 16.1584 11.3529 16.3985 12.6425C16.6386 13.9321 17.1308 15.1756 17.8751 16.3731C18.1872 16.8566 18.2712 17.2942 18.1272 17.6857C18.0071 18.0541 17.719 18.3305 17.2628 18.5147L13.3013 20Z" fill="white"/>
</svg>
